<?xml version="1.0" encoding="iso-8859-1"?>
<!-- Uploaded to: SVG Repo, www.svgrepo.com, Generator: SVG Repo Mixer Tools -->
<svg fill="#000000" height="800px" width="800px" version="1.1" id="Layer_1" xmlns="http://www.w3.org/2000/svg" xmlns:xlink="http://www.w3.org/1999/xlink" 
	 viewBox="0 0 512 512" xml:space="preserve">
<g>
	<g>
		<path d="M316.454,477.867l-9.254-69.4V358.4c9.425,0,17.067-7.641,17.067-17.067c0-9.425-7.641-17.067-17.067-17.067v-22.756
			c9.425,0,17.067-7.641,17.067-17.067s-7.641-17.067-17.067-17.067v-22.756c9.425,0,17.067-7.641,17.067-17.067
			s-7.641-17.067-17.067-17.067V101.997c7.334-12.768,15.929-43.214-19.817-94.669L282.291,0h-52.582l-5.093,7.328
			c-35.744,51.455-27.15,81.901-19.816,94.669v306.47l-9.254,69.4h-13.502V512h147.911v-34.133H316.454z M241.269,45.511h29.462
			c8.827,17.19,9.445,28.136,8.52,34.133h-46.5C231.825,73.647,232.442,62.701,241.269,45.511z M273.067,159.289v34.133h-34.133
			v-34.133H273.067z M229.982,477.867l9.102-68.267h33.831l9.102,68.267H229.982z"/>
	</g>
</g>
</svg>