<?xml version="1.0" encoding="iso-8859-1"?>
<!-- Uploaded to: SVG Repo, www.svgrepo.com, Generator: SVG Repo Mixer Tools -->
<svg fill="#000000" height="800px" width="800px" version="1.1" id="Layer_1" xmlns="http://www.w3.org/2000/svg" xmlns:xlink="http://www.w3.org/1999/xlink" 
	 viewBox="0 0 512 512" xml:space="preserve">
<g>
	<g>
		<path d="M256,240.513c-35.518,0-64.413,28.896-64.413,64.413c0,35.526,28.909,64.413,64.413,64.413
			c35.503,0,64.413-28.887,64.413-64.413C320.413,269.409,291.517,240.513,256,240.513z"/>
	</g>
</g>
<g>
	<g>
		<path d="M495.484,141.825c9.121,0,16.516-7.395,16.516-16.516c0-9.121-7.395-16.516-16.516-16.516h-55.054V96.68h55.054
			c9.121,0,16.516-7.395,16.516-16.516s-7.395-16.516-16.516-16.516h-55.054V54.84c0-9.121-7.395-16.516-16.516-16.516
			s-16.516,7.395-16.516,16.516v8.808h-55.054c-9.121,0-16.516,7.395-16.516,16.516s7.395,16.516,16.516,16.516h55.054v12.112
			h-55.054c-9.121,0-16.516,7.395-16.516,16.516s7.395,16.516,16.516,16.516h55.054v31.49l-81.184-15.954
			c-7.953-1.563-15.667,3.617-17.231,11.57l-2.383,12.125c-15.61-6.384-32.692-9.911-50.6-9.911s-34.989,3.527-50.6,9.911
			l-2.383-12.125c-1.563-7.953-9.278-13.133-17.231-11.57l-81.184,15.954v-31.49h55.054c9.121,0,16.516-7.395,16.516-16.516
			s-7.395-16.516-16.516-16.516h-55.055V96.68h55.054c9.121,0,16.516-7.395,16.516-16.516s-7.395-16.516-16.516-16.516h-55.054
			V54.84c0-9.121-7.395-16.516-16.516-16.516S71.57,45.719,71.57,54.84v8.808H16.516C7.395,63.648,0,71.043,0,80.164
			S7.395,96.68,16.516,96.68h55.054v12.112H16.516C7.395,108.792,0,116.187,0,125.308s7.395,16.516,16.516,16.516h55.054v37.982
			l-16.863,3.314c-7.953,1.563-13.133,9.277-11.57,17.231l12.599,64.113c1.472,7.486,8.394,12.511,15.834,11.773v106.345
			l-62.899,62.9c-6.45,6.449-6.45,16.907,0,23.357c6.45,6.449,16.907,6.45,23.357,0l39.542-39.541v2.11
			c0,9.121,7.395,16.516,16.516,16.516c9.121,0,16.516-7.395,16.516-16.516v-2.11l39.541,39.541c6.448,6.449,16.907,6.45,23.357,0
			c2.432-2.432,3.944-5.433,4.543-8.573c0.598,3.141,2.111,6.142,4.543,8.573c6.45,6.45,16.907,6.45,23.357,0l32.246-32.246
			c7.727,1.388,15.685,2.115,23.812,2.115c8.127,0,16.084-0.726,23.812-2.115l32.246,32.246c6.448,6.449,16.907,6.45,23.357,0
			c2.43-2.43,3.943-5.429,4.542-8.568c0.598,3.139,2.111,6.138,4.542,8.568c6.448,6.45,16.906,6.45,23.357,0l39.542-39.541v2.11
			c0,9.121,7.395,16.516,16.516,16.516c9.121,0,16.516-7.395,16.516-16.516v-2.11l39.542,39.541c6.448,6.449,16.907,6.45,23.357,0
			c6.45-6.45,6.45-16.907,0-23.357l-62.899-62.899V276.238c7.44,0.739,14.362-4.286,15.834-11.773l12.599-64.113
			c1.563-7.953-3.617-15.667-11.57-17.231l-16.863-3.314v-37.982H495.484z M176.585,445.482c-2.432,2.432-3.944,5.433-4.543,8.573
			c-0.598-3.141-2.111-6.141-4.543-8.573l-62.899-62.899V269.818l23.622-4.642c-3.902,12.558-6.005,25.908-6.005,39.75
			c0,52.72,30.5,98.31,74.813,120.108L176.585,445.482z M256,402.371c-53.717,0-97.445-43.7-97.445-97.445
			c0-53.731,43.714-97.445,97.445-97.445c53.731,0,97.446,43.714,97.446,97.445C353.445,358.665,309.722,402.371,256,402.371z
			 M407.398,382.583l-62.899,62.899c-2.43,2.43-3.943,5.429-4.542,8.568c-0.598-3.139-2.111-6.138-4.542-8.568l-20.448-20.448
			c44.313-21.797,74.813-67.387,74.813-120.107c0-13.842-2.102-27.192-6.005-39.75l23.622,4.642V382.583z"/>
	</g>
</g>
</svg>