<svg width="56" height="56" viewBox="0 0 56 56" fill="none" xmlns="http://www.w3.org/2000/svg">
<path fill-rule="evenodd" clip-rule="evenodd" d="M23.0879 1.45768C23.1811 0.627592 23.883 0 24.7183 0H31.2807C32.116 0 32.8179 0.627512 32.9111 1.45754L33.4618 6.36168C35.5919 6.89793 37.5999 7.74025 39.436 8.83868L43.2948 5.75847C43.9476 5.23737 44.8878 5.28994 45.4784 5.88059L50.1188 10.5209C50.7094 11.1115 50.762 12.0516 50.241 12.7044L47.1601 16.5647C48.258 18.4005 49.1005 20.4079 49.6368 22.5376L54.5423 23.0879C55.3724 23.181 56 23.883 56 24.7183V31.2807C56 32.116 55.3725 32.8179 54.5425 32.9111L49.6383 33.4618C49.1021 35.5918 48.2598 37.5998 47.1613 39.436L50.2415 43.2948C50.7626 43.9476 50.7101 44.8878 50.1194 45.4784L45.4791 50.1188C44.8885 50.7094 43.9484 50.762 43.2956 50.241L39.4353 47.1601C37.5994 48.2581 35.5918 49.1007 33.4618 49.637L32.9111 54.5424C32.8179 55.3725 32.116 56 31.2807 56H24.7183C23.883 56 23.1811 55.3724 23.0879 54.5423L22.5377 49.6381C20.4076 49.1018 18.3997 48.2594 16.5635 47.161L12.7043 50.241C12.0515 50.762 11.1114 50.7094 10.5208 50.1188L5.88048 45.4784C5.28983 44.8878 5.23726 43.9476 5.75836 43.2948L8.83946 39.4349C7.74151 37.5991 6.89914 35.5916 6.36289 33.4618L1.45758 32.9111C0.627532 32.8179 0 32.116 0 31.2807V24.7183C0 23.883 0.627592 23.1811 1.45768 23.0879L6.36153 22.5377C6.8977 20.4075 7.73992 18.3992 8.83829 16.5627L5.75893 12.7043C5.23791 12.0515 5.29053 11.1114 5.88114 10.5208L10.5215 5.88048C11.1121 5.28984 12.0523 5.23726 12.7051 5.75836L16.5632 8.83802C18.3996 7.73977 20.4077 6.89768 22.5377 6.36154L23.0879 1.45768ZM26.1851 3.28124L25.668 7.89059C25.588 8.60333 25.0543 9.18151 24.3503 9.3182C21.8077 9.81184 19.4453 10.8119 17.372 12.2105C16.7775 12.6116 15.9914 12.58 15.431 12.1327L11.8045 9.23787L9.23845 11.8039L12.133 15.4306C12.5802 15.9911 12.6117 16.7771 12.2108 17.3715C10.812 19.4451 9.81184 21.8075 9.3182 24.3502C9.18152 25.0543 8.60333 25.588 7.89059 25.668L3.28124 26.1851V29.814L7.89201 30.3316C8.60469 30.4116 9.18281 30.9453 9.31951 31.6493C9.81309 34.1913 10.8136 36.5529 12.212 38.6263C12.613 39.2207 12.5814 40.0067 12.1341 40.5672L9.23788 44.1954L11.8039 46.7615L15.4315 43.8663C15.992 43.419 16.778 43.3875 17.3725 43.7885C19.4458 45.1874 21.8079 46.1878 24.3504 46.6816C25.0544 46.8184 25.588 47.3965 25.668 48.1092L26.1852 52.7188H29.814L30.3316 48.1079C30.4116 47.3952 30.9453 46.8171 31.6493 46.6804C34.1914 46.1868 36.553 45.1861 38.6266 43.7876C39.2211 43.3867 40.007 43.4183 40.5674 43.8655L44.196 46.7615L46.762 44.1954L43.8666 40.5682C43.4192 40.0076 43.3877 39.2215 43.7888 38.627C45.1877 36.554 46.188 34.1917 46.6817 31.6493C46.8184 30.9453 47.3965 30.4117 48.1092 30.3316L52.7188 29.814V26.1852L48.1079 25.668C47.3952 25.588 46.817 25.0543 46.6803 24.3503C46.1867 21.8084 45.186 19.4469 43.7876 17.3733C43.3867 16.7789 43.4183 15.993 43.8655 15.4326L46.7615 11.804L44.1954 9.23799L40.5682 12.1334C40.0076 12.5808 39.2215 12.6123 38.627 12.2112C36.554 10.8123 34.1918 9.81203 31.6493 9.3183C30.9453 9.1816 30.4117 8.6035 30.3316 7.89084L29.814 3.28124H26.1851Z" fill="#3747FF"/>
<path fill-rule="evenodd" clip-rule="evenodd" d="M17.2814 26.8395C18.1874 26.8395 18.922 27.5741 18.922 28.4802V35.8289C18.9302 35.861 18.9793 35.9886 19.2215 36.2066C19.5608 36.5121 20.1441 36.8625 21.0047 37.1902C22.7145 37.8414 25.1873 38.2784 28.0001 38.2784C30.8128 38.2784 33.2856 37.8414 34.9954 37.1902C35.856 36.8625 36.4393 36.5121 36.7786 36.2066C37.0208 35.9886 37.0699 35.861 37.0781 35.8289V28.4802C37.0781 27.5741 37.8127 26.8395 38.7188 26.8395C39.6248 26.8395 40.3594 27.5741 40.3594 28.4802V35.8369C40.3594 37.0282 39.7193 37.9742 38.9742 38.6451C38.2287 39.3163 37.2423 39.8456 36.1632 40.2566C33.9936 41.0829 31.1071 41.5597 28.0001 41.5597C24.8931 41.5597 22.0065 41.0829 19.8369 40.2566C18.7578 39.8456 17.7714 39.3163 17.0259 38.6451C16.2808 37.9742 15.6407 37.0282 15.6407 35.8369V28.4802C15.6407 27.5741 16.3753 26.8395 17.2814 26.8395ZM37.0796 35.8209C37.0796 35.8209 37.0796 35.8231 37.0785 35.8276C37.0788 35.8231 37.0796 35.8209 37.0796 35.8209ZM18.9206 35.8209C18.9206 35.8209 18.9213 35.8231 18.9216 35.8276C18.9206 35.8231 18.9206 35.8209 18.9206 35.8209Z" fill="#3747FF"/>
<path fill-rule="evenodd" clip-rule="evenodd" d="M17.2814 19.0806C18.1874 19.0806 18.922 19.8151 18.922 20.7212V27.7978C18.9302 27.83 18.9793 27.9575 19.2215 28.1756C19.5608 28.4811 20.1441 28.8314 21.0047 29.1591C22.7145 29.8103 25.1873 30.2473 28.0001 30.2473C30.8128 30.2473 33.2856 29.8103 34.9954 29.1591C35.856 28.8314 36.4393 28.4811 36.7786 28.1756C37.0208 27.9575 37.0699 27.83 37.0781 27.7978V20.7212C37.0781 19.8151 37.8127 19.0806 38.7188 19.0806C39.6248 19.0806 40.3594 19.8151 40.3594 20.7212V27.8059C40.3594 28.9971 39.7193 29.9431 38.9742 30.614C38.2287 31.2852 37.2423 31.8146 36.1632 32.2255C33.9936 33.0518 31.1071 33.5286 28.0001 33.5286C24.8931 33.5286 22.0065 33.0518 19.8369 32.2255C18.7578 31.8146 17.7714 31.2852 17.0259 30.614C16.2808 29.9431 15.6407 28.9971 15.6407 27.8059V20.7212C15.6407 19.8151 16.3753 19.0806 17.2814 19.0806ZM37.0796 27.7898C37.0796 27.7898 37.0796 27.792 37.0785 27.7965C37.0788 27.792 37.0796 27.7898 37.0796 27.7898ZM18.9206 27.7898C18.9206 27.7898 18.9213 27.792 18.9216 27.7965C18.9206 27.792 18.9206 27.7898 18.9206 27.7898Z" fill="#3747FF"/>
<path fill-rule="evenodd" clip-rule="evenodd" d="M18.9205 20.1791C18.9205 20.1791 18.9205 20.1769 18.9215 20.1724C18.9212 20.1769 18.9205 20.1791 18.9205 20.1791ZM18.9242 20.1631C18.9378 20.1209 18.9959 19.9963 19.2214 19.7933C19.5607 19.4878 20.144 19.1375 21.0046 18.8098C22.7144 18.1586 25.1872 17.7216 28 17.7216C30.8128 17.7216 33.2856 18.1586 34.9954 18.8098C35.856 19.1375 36.4393 19.4878 36.7786 19.7933C37.0041 19.9963 37.0622 20.1209 37.0758 20.1631C37.0622 20.2052 37.0041 20.3298 36.7786 20.5328C36.4393 20.8383 35.856 21.1886 34.9954 21.5163C33.2856 22.1675 30.8128 22.6045 28 22.6045C25.1872 22.6045 22.7144 22.1675 21.0046 21.5163C20.144 21.1886 19.5607 20.8383 19.2214 20.5328C18.9959 20.3298 18.9378 20.2052 18.9242 20.1631ZM37.0796 20.1791C37.0796 20.1791 37.0788 20.1769 37.0785 20.1724C37.0796 20.1769 37.0796 20.1791 37.0796 20.1791ZM37.0785 20.1537C37.0788 20.1492 37.0796 20.147 37.0796 20.147C37.0796 20.147 37.0795 20.1492 37.0785 20.1537ZM18.9215 20.1537C18.9205 20.1492 18.9205 20.147 18.9205 20.147C18.9205 20.147 18.9212 20.1492 18.9215 20.1537ZM19.8368 15.7434C22.0064 14.9171 24.893 14.4403 28 14.4403C31.107 14.4403 33.9936 14.9171 36.1632 15.7434C37.2423 16.1544 38.2287 16.6837 38.9742 17.3549C39.7193 18.0258 40.3594 18.9718 40.3594 20.1631C40.3594 21.3543 39.7193 22.3003 38.9742 22.9712C38.2287 23.6425 37.2423 24.1718 36.1632 24.5827C33.9936 25.409 31.107 25.8858 28 25.8858C24.893 25.8858 22.0064 25.409 19.8368 24.5827C18.7577 24.1718 17.7713 23.6425 17.0258 22.9712C16.2807 22.3003 15.6406 21.3543 15.6406 20.1631C15.6406 18.9718 16.2807 18.0258 17.0258 17.3549C17.7713 16.6837 18.7577 16.1544 19.8368 15.7434Z" fill="#3747FF"/>
</svg>
