<svg width="56" height="56" viewBox="0 0 56 56" fill="none" xmlns="http://www.w3.org/2000/svg">
<path d="M40.354 4.39957C35.7307 0.642055 29.6876 -0.804154 23.7733 0.431796C16.3823 1.97635 10.3523 8.03325 8.76847 15.5038C7.43304 21.803 9.07868 28.1271 13.2835 32.8547C15.369 35.1994 16.5175 38.1327 16.5175 41.1224V44.4043C16.5175 46.5435 17.8892 48.3675 19.7989 49.0449V51.0774C19.7989 53.7919 22.007 56.0002 24.721 56.0002H31.2839C33.998 56.0002 36.2061 53.7919 36.2061 51.0774V49.0449C38.1157 48.3675 39.4875 46.5435 39.4875 44.4043V41.1224C39.4875 38.1709 40.6701 35.1962 42.8173 32.7461C45.9602 29.16 47.6911 24.5589 47.6911 19.7903C47.6911 13.7991 45.0168 8.18925 40.354 4.39957ZM32.9246 51.0774C32.9246 51.9822 32.1886 52.7184 31.2839 52.7184H24.721C23.8164 52.7184 23.0803 51.9822 23.0803 51.0774V49.3271H32.9246V51.0774ZM36.2061 44.4043C36.2061 45.3091 35.47 46.0452 34.5653 46.0452H21.4396C20.5349 46.0452 19.7989 45.3091 19.7989 44.4043V42.7634H36.2061V44.4043ZM28.0025 27.8502C29.1104 27.8502 30.2181 27.673 31.2839 27.3213V39.4816H24.721V27.3213C25.7869 27.673 26.8944 27.8502 28.0025 27.8502ZM25.2597 24.0229L28.0025 18.5368L30.7452 24.0228C28.987 24.7464 27.0179 24.7464 25.2597 24.0229ZM40.3496 30.5829C38.0683 33.186 36.662 36.2954 36.2996 39.4815H34.5653V24.7246C34.5653 24.7224 34.5653 24.7203 34.5653 24.7181C34.5653 24.4942 34.5169 24.2475 34.4077 24.0158C34.402 24.0038 34.398 23.9912 34.3921 23.9794L29.4699 14.1338C29.192 13.5779 28.6239 13.2267 28.0024 13.2267C27.3809 13.2267 26.8128 13.5779 26.5348 14.1338L21.6127 23.9794C21.504 24.1971 21.4395 24.4618 21.4395 24.7169C21.4395 24.7199 21.4395 24.7227 21.4395 24.7257V39.4816H19.7094C19.3577 36.2734 17.9775 33.1945 15.7353 30.6735C12.231 26.7335 10.8617 21.4526 11.9786 16.1845C13.2968 9.96649 18.3065 4.92697 24.4444 3.6443C29.3871 2.61139 34.4316 3.81507 38.2845 6.94652C42.1772 10.1102 44.4096 14.7916 44.4096 19.7903C44.4096 23.7627 42.9678 27.5956 40.3496 30.5829Z" fill="#3747FF"/>
<path d="M4.9228 19.791H1.64093C0.7347 19.791 0 20.5257 0 21.4319C0 22.3382 0.7347 23.0729 1.64093 23.0729H4.9228C5.82903 23.0729 6.56373 22.3382 6.56373 21.4319C6.56373 20.5257 5.82903 19.791 4.9228 19.791Z" fill="#3747FF"/>
<path d="M5.60622 11.5864L3.28561 9.26579C2.64477 8.62495 1.60584 8.62495 0.965004 9.26579C0.324165 9.90662 0.324165 10.9456 0.965004 11.5864L3.28561 13.907C3.92656 14.5479 4.96549 14.5477 5.60622 13.907C6.24706 13.2662 6.24706 12.2272 5.60622 11.5864Z" fill="#3747FF"/>
<path d="M5.60614 28.9572C4.9653 28.3164 3.92637 28.3164 3.28553 28.9572L0.964922 31.2778C0.324193 31.9186 0.324193 32.9576 0.964922 33.5984C1.60565 34.2391 2.64458 34.2392 3.28553 33.5984L5.60614 31.2778C6.24687 30.637 6.24687 29.598 5.60614 28.9572Z" fill="#3747FF"/>
<path d="M54.3583 19.7891H51.0765C50.1702 19.7891 49.4355 20.5238 49.4355 21.43C49.4355 22.3362 50.1702 23.0709 51.0765 23.0709H54.3583C55.2646 23.0709 55.9993 22.3362 55.9993 21.43C55.9993 20.5238 55.2646 19.7891 54.3583 19.7891Z" fill="#3747FF"/>
<path d="M55.0376 9.26579C54.3969 8.62495 53.3578 8.62495 52.717 9.26579L50.3964 11.5864C49.7556 12.2272 49.7556 13.2662 50.3964 13.907C51.0371 14.5478 52.0762 14.5478 52.717 13.907L55.0376 11.5864C55.6785 10.9456 55.6785 9.90662 55.0376 9.26579Z" fill="#3747FF"/>
<path d="M55.0377 31.2758L52.7171 28.9552C52.0764 28.3144 51.0374 28.3144 50.3964 28.9552C49.7555 29.5961 49.7556 30.635 50.3964 31.2758L52.7171 33.5965C53.3577 34.2373 54.3968 34.2373 55.0377 33.5965C55.6785 32.9556 55.6785 31.9167 55.0377 31.2758Z" fill="#3747FF"/>
</svg>
